<svg width="284" height="58" viewBox="0 0 284 58" fill="none" xmlns="http://www.w3.org/2000/svg">
<g clip-path="url(#clip0_176_85)">
<path d="M27.7149 35.5985L3.99364 0.00934132H14.683L27.7132 19.4876L40.7469 0.00758479H53.4856V49.8774H43.9675V11.1405L27.7167 35.6003L27.7149 35.5985ZM11.3095 49.9512H1.7915V38.82L11.3095 24.513V49.9512ZM66.3665 49.9512V0.00934132H75.8845V37.0635L100.482 0.00934132H111.61V49.9512H102.386V13.4943L77.9339 49.9512H66.3665ZM183.338 49.9512V0.00934132H192.856V37.0635L217.455 0.00934132H228.582V49.9512H219.357V13.7911L195.202 49.9512H183.338ZM260.223 0.00934132C273.814 -0.206713 280.538 7.48165 282.768 11.7254L275.396 15.7303C271.771 8.42315 264.322 7.33937 260.223 7.56245C254.254 7.8839 244.547 12.2506 244.547 25.256C244.547 38.2597 255.238 41.8957 260.583 42.0872C269.155 42.0872 273.984 36.937 275.352 34.1301L282.768 38.3141C276.669 48.5565 266.48 49.8546 260.583 49.8546C242.82 49.8546 235.559 35.0382 235.559 25.256C235.559 9.7915 246.777 0.00934132 260.223 0.00934132Z" fill="white"/>
<path fill-rule="evenodd" clip-rule="evenodd" d="M128.302 57.1266V49.7456H166.59V57.0528H176.18V41.9115H168.129V0.00927734H130.643C130.571 36.9896 125.006 41.9115 123.469 41.9115H118.638V57.1266H128.302ZM158.758 7.77141H139.575C139.136 30.912 135.328 40.7398 133.718 41.9115H158.755V7.77141H158.758Z" fill="white"/>
</g>
<defs>
<clipPath id="clip0_176_85">
<rect width="282.731" height="57.9657" fill="white" transform="translate(0.574219 0.00390625)"/>
</clipPath>
</defs>
</svg>
