<svg width="478" height="98" viewBox="0 0 478 98" fill="none" xmlns="http://www.w3.org/2000/svg">
<path d="M45.8852 60.1779L5.78067 0.00888058H23.8526L45.8822 32.9398L67.9177 0.00591088H89.4544V84.3186H73.3627V18.8279L45.8881 60.1809L45.8852 60.1779ZM18.1493 84.4433H2.05762V65.6243L18.1493 41.4362V84.4433ZM111.232 84.4433V0.00888058H127.323V62.6546L168.909 0.00888058H187.723V84.4433H172.128V22.8072L130.788 84.4433H111.232ZM308.99 84.4433V0.00888058H325.082V62.6546L366.671 0.00888058H385.482V84.4433H369.886V23.3091L329.048 84.4433H308.99ZM438.976 0.00888058C461.953 -0.356392 473.321 12.642 477.092 19.8168L464.628 26.5877C458.5 14.2337 445.906 12.4014 438.976 12.7786C428.885 13.322 412.473 20.7047 412.473 42.6923C412.473 64.677 430.548 70.8243 439.585 71.148C454.076 71.148 462.241 62.4408 464.554 57.6952L477.092 64.7691C466.781 82.0854 449.555 84.28 439.585 84.28C409.554 84.28 397.278 59.2306 397.278 42.6923C397.278 16.5471 416.243 0.00888058 438.976 0.00888058Z" fill="#FC4C00"/>
<path fill-rule="evenodd" clip-rule="evenodd" d="M215.943 96.5746V84.0959H280.675V96.4498H296.889V70.851H283.276V0.00891113H219.901C219.779 62.5299 210.371 70.851 207.773 70.851H199.605V96.5746H215.943ZM267.434 13.132H235.001C234.259 52.2548 227.822 68.8702 225.1 70.851H267.428V13.132H267.434Z" fill="#FC4C00"/>
</svg>
