<svg width="22" height="20" viewBox="0 0 22 20" fill="none" xmlns="http://www.w3.org/2000/svg">
<path d="M11.0515 19.6631C9.51833 19.6631 8.12715 19.4146 6.87793 18.9178C5.62871 18.4351 4.54984 17.7538 3.64131 16.8736C2.74698 15.9935 2.0514 14.9572 1.55455 13.7648C1.07189 12.5723 0.830566 11.2734 0.830566 9.86805C0.830566 8.47687 1.07189 7.19216 1.55455 6.01392C2.0514 4.83568 2.75408 3.80649 3.66261 2.92636C4.57113 2.04623 5.6571 1.36484 6.92052 0.882183C8.18393 0.39953 9.5893 0.158203 11.1366 0.158203C12.6272 0.158203 13.99 0.392431 15.225 0.860889C16.46 1.31515 17.5247 1.96106 18.419 2.7986C19.3133 3.63615 20.0018 4.62275 20.4845 5.7584C20.9671 6.87986 21.2085 8.10779 21.2085 9.44218C21.2085 10.7056 21.0239 11.7845 20.6548 12.6788C20.2999 13.5731 19.796 14.2545 19.143 14.723C18.49 15.1914 17.7234 15.4257 16.8433 15.4257C15.878 15.4257 15.1114 15.1417 14.5436 14.5739C13.9758 14.0061 13.6919 13.1756 13.6919 12.0826V11.1031L13.7557 9.95323L13.5641 6.86566V4.82149H16.46V11.7206C16.46 12.2316 16.5594 12.5865 16.7581 12.7853C16.9569 12.984 17.1982 13.0834 17.4821 13.0834C17.8086 13.0834 18.0854 12.9556 18.3126 12.7001C18.5539 12.4446 18.7384 12.0542 18.8662 11.5289C18.9939 10.9895 19.0578 10.3081 19.0578 9.48477C19.0578 8.4059 18.8662 7.4193 18.4829 6.52497C18.1138 5.63064 17.5744 4.85697 16.8646 4.20397C16.169 3.55097 15.3315 3.05412 14.352 2.71343C13.3866 2.35853 12.3149 2.18109 11.1366 2.18109C9.95839 2.18109 8.87952 2.37273 7.90002 2.75601C6.92052 3.1393 6.08297 3.67873 5.38738 4.37432C4.69179 5.05571 4.15236 5.86487 3.76907 6.80178C3.39999 7.7387 3.21544 8.76079 3.21544 9.86805C3.21544 11.0037 3.39999 12.0471 3.76907 12.9982C4.13816 13.9351 4.6634 14.7443 5.34479 15.4257C6.04038 16.1213 6.87083 16.6607 7.83614 17.044C8.80144 17.4273 9.87322 17.6189 11.0515 17.6189C11.7329 17.6189 12.4355 17.5408 13.1595 17.3847C13.8835 17.2427 14.5791 17.0085 15.2463 16.682L15.9277 18.641C15.2747 18.9675 14.5081 19.2159 13.628 19.3863C12.762 19.5708 11.9032 19.6631 11.0515 19.6631ZM10.2849 15.4257C9.37637 15.4257 8.54592 15.2056 7.79355 14.7656C7.05537 14.3113 6.46625 13.6796 6.02619 12.8704C5.58612 12.0471 5.36609 11.1031 5.36609 10.0384C5.36609 8.97372 5.57902 8.03681 6.00489 7.22765C6.44496 6.4185 7.03408 5.79389 7.77226 5.35382C8.52463 4.89956 9.36217 4.67243 10.2849 4.67243C11.2218 4.67243 12.0239 4.88537 12.6911 5.31124C13.3583 5.73711 13.8693 6.34752 14.2242 7.14248C14.5791 7.93744 14.7565 8.90274 14.7565 10.0384C14.7565 11.1599 14.5862 12.1252 14.2455 12.9343C13.9048 13.7435 13.4008 14.361 12.7336 14.7869C12.0806 15.2127 11.2644 15.4257 10.2849 15.4257ZM10.945 12.9769C11.456 12.9769 11.9103 12.8633 12.3078 12.6362C12.7195 12.3949 13.0389 12.0542 13.266 11.6141C13.4931 11.1741 13.6067 10.6488 13.6067 10.0384C13.6067 9.41379 13.4931 8.88855 13.266 8.46268C13.0389 8.03681 12.7195 7.71031 12.3078 7.48318C11.9103 7.25604 11.456 7.14248 10.945 7.14248C10.4339 7.14248 9.97968 7.25604 9.58221 7.48318C9.18473 7.71031 8.87242 8.04391 8.64529 8.48397C8.41816 8.90984 8.30459 9.42798 8.30459 10.0384C8.30459 10.6488 8.41816 11.1741 8.64529 11.6141C8.87242 12.04 9.18473 12.3736 9.58221 12.6149C9.97968 12.8562 10.4339 12.9769 10.945 12.9769Z" fill="white"/>
</svg>
