<svg width="30" height="30" viewBox="0 0 30 30" fill="none" xmlns="http://www.w3.org/2000/svg">
<path d="M14.787 27.4716C13.1029 27.4716 11.5112 27.147 10.012 26.4979C8.51272 25.8487 7.20344 24.9626 6.08413 23.8395C4.96482 22.7163 4.0817 21.4026 3.43476 19.8982C2.78782 18.3938 2.46436 16.7967 2.46436 15.1069C2.46436 13.3964 2.78782 11.7942 3.43476 10.3001C4.0817 8.80604 4.96482 7.49744 6.08413 6.37432C7.20344 5.25119 8.51272 4.36505 10.012 3.71591C11.5112 3.06676 13.1029 2.74219 14.787 2.74219C16.4916 2.74219 18.0884 3.06676 19.5774 3.71591C21.0664 4.36505 22.3706 5.25119 23.4899 6.37432C24.6092 7.49744 25.4923 8.80604 26.1392 10.3001C26.7862 11.7942 27.1096 13.3964 27.1096 15.1069C27.1096 16.7967 26.7862 18.3938 26.1392 19.8982C25.4923 21.4026 24.6092 22.7163 23.4899 23.8395C22.3706 24.9626 21.0664 25.8487 19.5774 26.4979C18.0884 27.147 16.4916 27.4716 14.787 27.4716ZM14.787 24.9368C15.321 24.1949 15.7831 23.4221 16.1733 22.6184C16.5635 21.8147 16.8818 20.9595 17.1283 20.0528H12.4457C12.6921 20.9595 13.0105 21.8147 13.4007 22.6184C13.7909 23.4221 14.253 24.1949 14.787 24.9368ZM11.5831 24.4422C11.2134 23.7622 10.89 23.0564 10.6127 22.3248C10.3354 21.5932 10.1044 20.8359 9.91955 20.0528H6.28437C6.87997 21.0832 7.62446 21.9796 8.51785 22.7421C9.41124 23.5046 10.433 24.0713 11.5831 24.4422ZM17.9909 24.4422C19.141 24.0713 20.1628 23.5046 21.0561 22.7421C21.9495 21.9796 22.694 21.0832 23.2896 20.0528H19.6544C19.4696 20.8359 19.2386 21.5932 18.9613 22.3248C18.684 23.0564 18.3606 23.7622 17.9909 24.4422ZM5.23695 17.5798H9.42665C9.36503 17.1677 9.31882 16.7607 9.28802 16.3588C9.25721 15.957 9.24181 15.5397 9.24181 15.1069C9.24181 14.6741 9.25721 14.2568 9.28802 13.855C9.31882 13.4531 9.36503 13.0461 9.42665 12.6339H5.23695C5.13426 13.0461 5.05724 13.4531 5.0059 13.855C4.95456 14.2568 4.92888 14.6741 4.92888 15.1069C4.92888 15.5397 4.95456 15.957 5.0059 16.3588C5.05724 16.7607 5.13426 17.1677 5.23695 17.5798ZM11.8912 17.5798H17.6828C17.7444 17.1677 17.7906 16.7607 17.8214 16.3588C17.8523 15.957 17.8677 15.5397 17.8677 15.1069C17.8677 14.6741 17.8523 14.2568 17.8214 13.855C17.7906 13.4531 17.7444 13.0461 17.6828 12.6339H11.8912C11.8296 13.0461 11.7834 13.4531 11.7525 13.855C11.7217 14.2568 11.7063 14.6741 11.7063 15.1069C11.7063 15.5397 11.7217 15.957 11.7525 16.3588C11.7834 16.7607 11.8296 17.1677 11.8912 17.5798ZM20.1473 17.5798H24.337C24.4397 17.1677 24.5167 16.7607 24.5681 16.3588C24.6194 15.957 24.6451 15.5397 24.6451 15.1069C24.6451 14.6741 24.6194 14.2568 24.5681 13.855C24.5167 13.4531 24.4397 13.0461 24.337 12.6339H20.1473C20.209 13.0461 20.2552 13.4531 20.286 13.855C20.3168 14.2568 20.3322 14.6741 20.3322 15.1069C20.3322 15.5397 20.3168 15.957 20.286 16.3588C20.2552 16.7607 20.209 17.1677 20.1473 17.5798ZM19.6544 10.161H23.2896C22.694 9.13062 21.9495 8.23418 21.0561 7.47169C20.1628 6.7092 19.141 6.14248 17.9909 5.77154C18.3606 6.4516 18.684 7.15742 18.9613 7.88899C19.2386 8.62057 19.4696 9.37791 19.6544 10.161ZM12.4457 10.161H17.1283C16.8818 9.25426 16.5635 8.39904 16.1733 7.59533C15.7831 6.79163 15.321 6.01883 14.787 5.27695C14.253 6.01883 13.7909 6.79163 13.4007 7.59533C13.0105 8.39904 12.6921 9.25426 12.4457 10.161ZM6.28437 10.161H9.91955C10.1044 9.37791 10.3354 8.62057 10.6127 7.88899C10.89 7.15742 11.2134 6.4516 11.5831 5.77154C10.433 6.14248 9.41124 6.7092 8.51785 7.47169C7.62446 8.23418 6.87997 9.13062 6.28437 10.161Z" fill="#FEF7FF"/>
</svg>
