<svg width="30" height="30" viewBox="0 0 30 30" fill="none" xmlns="http://www.w3.org/2000/svg">
<g clip-path="url(#clip0_176_89)">
<path d="M18.5457 6.4449C19.7493 6.68053 20.8555 7.27118 21.7226 8.14126C22.5897 9.01134 23.1783 10.1213 23.4132 11.329M18.5457 1.49902C21.0463 1.77777 23.3782 2.9014 25.1583 4.68542C26.9385 6.46944 28.0613 8.80781 28.3422 11.3166M27.11 21.1836V24.893C27.1113 25.2374 27.041 25.5782 26.9036 25.8938C26.7661 26.2093 26.5644 26.4925 26.3115 26.7253C26.0587 26.9581 25.7601 27.1354 25.435 27.2457C25.1099 27.356 24.7654 27.397 24.4236 27.366C20.6317 26.9526 16.9894 25.6524 13.7892 23.57C10.8118 21.6716 8.28753 19.1387 6.39559 16.1512C4.31304 12.9255 3.01702 9.25292 2.61254 5.431C2.58175 5.08907 2.62224 4.74446 2.73145 4.4191C2.84067 4.09374 3.01619 3.79476 3.24687 3.5412C3.47754 3.28764 3.75831 3.08506 4.07128 2.94634C4.38426 2.80762 4.7226 2.73582 5.06475 2.73549H8.76154C9.35957 2.72959 9.93933 2.94208 10.3928 3.33337C10.8462 3.72465 11.1424 4.26803 11.2261 4.86222C11.3821 6.04932 11.6715 7.21489 12.0887 8.3367C12.2544 8.77926 12.2903 9.26024 12.192 9.72264C12.0938 10.185 11.8654 10.6095 11.5341 10.9457L9.96916 12.516C11.7234 15.6115 14.2777 18.1746 17.3627 19.9348L18.9277 18.3645C19.2628 18.032 19.6858 17.8029 20.1466 17.7043C20.6074 17.6057 21.0867 17.6417 21.5278 17.8081C22.6458 18.2267 23.8074 18.517 24.9905 18.6736C25.5891 18.7583 26.1357 19.0609 26.5265 19.5237C26.9173 19.9865 27.125 20.5772 27.11 21.1836Z" stroke="#F5F5F5" stroke-width="2.36595" stroke-linecap="round" stroke-linejoin="round"/>
</g>
<defs>
<clipPath id="clip0_176_89">
<rect width="29.5743" height="29.6753" fill="white" transform="translate(0 0.262695)"/>
</clipPath>
</defs>
</svg>
